<svg width="16" height="16" viewBox="0 0 16 16" fill="none" xmlns="http://www.w3.org/2000/svg">
<path d="M7.7073 0.109615C4.43349 0.263815 1.92498 3.07657 1.92498 6.33174V9.27511L0.851568 11.4346C0.84968 11.4385 0.847834 11.4425 0.846031 11.4465C0.414197 12.3648 1.11324 13.4675 2.12827 13.4675H5.56998C5.56998 14.8023 6.66515 15.8975 7.99998 15.8975C9.3348 15.8975 10.43 14.8023 10.43 13.4675H13.8709C14.8859 13.4675 15.5859 12.365 15.1539 11.4465C15.1521 11.4425 15.1503 11.4385 15.1484 11.4346L14.075 9.27511V6.1775C14.075 2.73248 11.1846 -0.0540913 7.7073 0.109615ZM7.76425 1.32303C10.5669 1.19109 12.86 3.40819 12.86 6.1775V9.4175C12.8599 9.51135 12.8816 9.60394 12.9233 9.68802L14.0544 11.9646C14.1271 12.1205 14.043 12.2525 13.8709 12.2525H2.12827C1.95617 12.2525 1.87269 12.1207 1.94554 11.9646V11.9638L3.0767 9.68802C3.1184 9.60394 3.14006 9.51135 3.13998 9.4175V6.33174C3.13998 3.69903 5.15665 1.44585 7.76425 1.32303ZM6.78498 13.4675H9.21498C9.21498 14.1455 8.678 14.6825 7.99998 14.6825C7.32195 14.6825 6.78498 14.1455 6.78498 13.4675Z" fill="#1E1E1E"/>
</svg>
