<svg width="15" height="15" viewBox="0 0 15 15" fill="none" xmlns="http://www.w3.org/2000/svg">
<path d="M0.563161 6.02589e-05C0.362917 -0.0029999 0.17666 0.110685 0.0757114 0.297583C-0.0252371 0.48448 -0.0252371 0.715635 0.0757114 0.902533C0.17666 1.08943 0.362917 1.20312 0.563161 1.20006H1.60643C1.73186 1.20006 1.83653 1.28493 1.87213 1.41568L4.23846 10.1086C4.44614 10.8716 5.09925 11.4 5.8359 11.4H11.9111C12.6726 11.4 13.3424 10.835 13.527 10.0371V10.036L14.9835 3.74536C15.0249 3.56609 14.9875 3.37621 14.8822 3.23063C14.777 3.08504 14.6155 2.99998 14.4445 3.00005H3.46089L2.93817 1.07701H2.93709C2.76391 0.440959 2.21948 6.02589e-05 1.60643 6.02589e-05H0.563161ZM8.89196 4.20004C9.19846 4.20004 9.44721 4.46824 9.44721 4.80004V6.60003H11.113C11.4195 6.60003 11.6682 6.86823 11.6682 7.20003C11.6682 7.53183 11.4195 7.80003 11.113 7.80003H9.44721V9.60002C9.44721 9.93182 9.19846 10.2 8.89196 10.2C8.58546 10.2 8.33671 9.93182 8.33671 9.60002V7.80003H6.67095C6.36445 7.80003 6.11569 7.53183 6.11569 7.20003C6.11569 6.86823 6.36445 6.60003 6.67095 6.60003H8.33671V4.80004C8.33671 4.46824 8.58546 4.20004 8.89196 4.20004ZM6.11569 12.6C5.50238 12.6 5.00519 13.1373 5.00519 13.8C5.00519 14.4627 5.50238 15 6.11569 15C6.72901 15 7.2262 14.4627 7.2262 13.8C7.2262 13.1373 6.72901 12.6 6.11569 12.6ZM11.6682 12.6C11.0549 12.6 10.5577 13.1373 10.5577 13.8C10.5577 14.4627 11.0549 15 11.6682 15C12.2815 15 12.7787 14.4627 12.7787 13.8C12.7787 13.1373 12.2815 12.6 11.6682 12.6Z" fill="#292929"/>
</svg>
