<svg width="15" height="15" viewBox="0 0 15 15" fill="none" xmlns="http://www.w3.org/2000/svg">
<path d="M1.2766 0C0.751605 0 0.319149 0.448678 0.319149 0.99336V2.28874C0.307198 2.34917 0 3.90698 0 4.80124C0 5.25774 0.0849129 5.69478 0.317902 6.04359L0.319149 6.04553V12.9137C0.319149 13.4614 0.748723 13.907 1.2766 13.907H8.94178C8.7171 13.7074 8.49831 13.4872 8.29725 13.2448H1.2766C1.10074 13.2448 0.957447 13.0965 0.957447 12.9137V6.53898C1.10457 6.59194 1.26483 6.6224 1.43617 6.6224C1.8624 6.6224 2.2507 6.45911 2.55319 6.19622C2.85568 6.45911 3.24399 6.6224 3.67021 6.6224C4.09644 6.6224 4.48474 6.45911 4.78723 6.19622C5.08972 6.45911 5.47803 6.6224 5.90426 6.6224C6.3427 6.6224 6.71535 6.41949 7.02128 6.14318C7.3272 6.41949 7.69985 6.6224 8.1383 6.6224C8.57674 6.6224 8.9494 6.4196 9.25532 6.14318C9.56123 6.4196 9.9339 6.6224 10.3723 6.6224C10.7983 6.6224 11.187 6.45951 11.4894 6.19686C11.7917 6.45951 12.1804 6.6224 12.6064 6.6224C12.7777 6.6224 12.938 6.59194 13.0851 6.53898V7.95529C13.3056 7.96854 13.5201 8.00552 13.7234 8.06976V6.04553L13.7247 6.04359C13.9576 5.69478 14.0426 5.25774 14.0426 4.80124C14.0426 3.90698 13.7354 2.34917 13.7234 2.28874V0.99336C13.7234 0.448678 13.2909 0 12.766 0H1.2766ZM1.2766 0.66224H12.766C12.9463 0.66224 13.0851 0.806267 13.0851 0.99336V1.98672H9.30893C9.27446 1.98081 9.23929 1.98081 9.20483 1.98672H7.07488C7.04042 1.98081 7.00525 1.98081 6.97079 1.98672H4.83648C4.81856 1.98361 4.80042 1.9821 4.78225 1.98219C4.76679 1.98254 4.75137 1.98405 4.73612 1.98672H0.957447V0.99336C0.957447 0.806267 1.09627 0.66224 1.2766 0.66224ZM1.59574 0.99336C1.41948 0.99336 1.2766 1.14161 1.2766 1.32448C1.2766 1.50735 1.41948 1.6556 1.59574 1.6556C1.77201 1.6556 1.91489 1.50735 1.91489 1.32448C1.91489 1.14161 1.77201 0.99336 1.59574 0.99336ZM2.55319 0.99336C2.37693 0.99336 2.23404 1.14161 2.23404 1.32448C2.23404 1.50735 2.37693 1.6556 2.55319 1.6556C2.72945 1.6556 2.87234 1.50735 2.87234 1.32448C2.87234 1.14161 2.72945 0.99336 2.55319 0.99336ZM3.51064 0.99336C3.33438 0.99336 3.19149 1.14161 3.19149 1.32448C3.19149 1.50735 3.33438 1.6556 3.51064 1.6556C3.6869 1.6556 3.82979 1.50735 3.82979 1.32448C3.82979 1.14161 3.6869 0.99336 3.51064 0.99336ZM0.91693 2.64896H2.23404V5.59347C2.0301 5.81657 1.75377 5.96016 1.43617 5.96016C1.12589 5.96016 0.970003 5.85641 0.842753 5.6659C0.715503 5.4754 0.638298 5.16758 0.638298 4.80124C0.638298 4.14809 0.862332 2.95076 0.91693 2.64896ZM2.87234 2.64896H4.46808V5.59347C4.26414 5.81657 3.98781 5.96016 3.67021 5.96016C3.35261 5.96016 3.07629 5.81657 2.87234 5.59347V2.64896ZM5.10638 2.64896H6.70213V5.57925C6.49768 5.80613 6.22492 5.96016 5.90426 5.96016C5.5836 5.96016 5.31083 5.80613 5.10638 5.57925V2.64896ZM7.34043 2.64896H8.93617V5.57925C8.73201 5.80595 8.45896 5.96016 8.1383 5.96016C7.81764 5.96016 7.54488 5.80613 7.34043 5.57925V2.64896ZM9.57447 2.64896H11.1702V5.57925C10.9661 5.80595 10.693 5.96016 10.3723 5.96016C10.0517 5.96016 9.77863 5.80595 9.57447 5.57925V2.64896ZM11.8085 2.64896H13.1256C13.1802 2.95076 13.4043 4.14809 13.4043 4.80124C13.4043 5.16758 13.3271 5.4754 13.1998 5.6659C13.0726 5.85641 12.9167 5.96016 12.6064 5.96016C12.2888 5.96016 12.0122 5.81642 11.8085 5.59347V2.64896ZM10.0532 8.60912C8.90425 8.60912 7.97872 9.5695 7.97872 10.7284C7.97872 12.5496 9.57422 13.6424 10.5955 14.3378C10.8827 14.5364 11.1066 14.6689 11.2662 14.8344L11.4576 15L11.6489 14.8344C11.8085 14.702 12.0637 14.5364 12.319 14.3378C13.4041 13.6093 15 12.5496 15 10.7284C15 9.5695 14.0745 8.60912 12.9255 8.60912C12.383 8.60912 11.8723 8.84117 11.4894 9.2054C11.1064 8.84117 10.5957 8.60912 10.0532 8.60912ZM10.0532 9.27136C10.5319 9.27136 10.9466 9.50315 11.2338 9.9336L11.4894 10.3307L11.7449 9.9336C12.0002 9.53626 12.4468 9.27136 12.9255 9.27136C13.7234 9.27136 14.3617 9.93373 14.3617 10.7284C14.3617 12.1854 13.021 13.1122 12.0317 13.7745C11.8083 13.9069 11.6489 14.0392 11.4894 14.1386C11.3298 14.0061 11.1705 13.9069 10.9471 13.7745C9.9577 13.1122 8.61702 12.1854 8.61702 10.7284C8.61702 9.93373 9.25532 9.27136 10.0532 9.27136Z" fill="#292929"/>
</svg>
