<svg width="15" height="16" viewBox="0 0 15 16" fill="none" xmlns="http://www.w3.org/2000/svg">
<path d="M13.9583 16H10.2083C9.63292 16 9.16667 15.5409 9.16667 14.9744V11.2821C9.16667 10.8287 8.79375 10.4615 8.33333 10.4615H6.66667C6.20625 10.4615 5.83333 10.8287 5.83333 11.2821V14.9744C5.83333 15.5409 5.36708 16 4.79167 16H1.04167C0.46625 16 0 15.5409 0 14.9744V7.1438C0 6.20062 0.439167 5.30954 1.19125 4.72615L7.11292 0.131692C7.34 -0.0438974 7.66 -0.0438974 7.88667 0.131692L13.8092 4.72615C14.5612 5.30954 15 6.2002 15 7.14297V14.9744C15 15.5409 14.5337 16 13.9583 16Z" fill="#292929"/>
</svg>
