<svg width="15" height="15" viewBox="0 0 15 15" fill="none" xmlns="http://www.w3.org/2000/svg">
<path d="M2.31388 8.34318L2.31395 8.34318V8.33333V0.833403C2.31395 0.83338 2.31395 0.833357 2.31395 0.833333C2.31397 0.793321 2.32885 0.765354 2.34378 0.749594C2.35767 0.73493 2.3662 0.734985 2.36833 0.734999L2.36842 0.735H2.3685H14.2105H14.2105L14.2106 0.734999C14.2127 0.734985 14.2213 0.73493 14.2352 0.749594C14.2501 0.765354 14.265 0.79332 14.265 0.833333C14.265 0.833357 14.265 0.83338 14.265 0.833403V12.5C14.265 13.5028 13.4874 14.265 12.6316 14.265H2.36842C1.50313 14.265 0.735 13.5129 0.735 12.5V11.6667C0.735 11.627 0.749797 11.5989 0.764891 11.583C0.77889 11.5682 0.787444 11.5683 0.789312 11.5683L0.789474 11.5683H11.0526C11.0541 11.5683 11.0628 11.5677 11.0772 11.583C11.0923 11.5989 11.1071 11.627 11.1071 11.6667V12.5C11.1071 13.3267 11.7525 14.0683 12.6316 14.0683C13.5205 14.0683 14.1561 13.3388 14.1561 12.5V1.66667V0.931667H13.4211H3.15789H2.42289V1.66667V8.33333H2.42283L2.42296 8.34318C2.42369 8.39795 2.39592 8.42987 2.38089 8.43913C2.37416 8.44328 2.37017 8.44353 2.36842 8.44353C2.36667 8.44353 2.36268 8.44328 2.35595 8.43913C2.34092 8.42987 2.31315 8.39795 2.31388 8.34318ZM5.47184 5.09833V4.90167H5.58079V5.09833H5.47184ZM8.62974 5C8.62974 4.96029 8.64453 4.93226 8.65963 4.91633C8.67363 4.90155 8.68218 4.90164 8.68405 4.90167L8.68421 4.90167H11.0526L11.0528 4.90167C11.0547 4.90164 11.0632 4.90155 11.0772 4.91633C11.0923 4.93226 11.1071 4.96028 11.1071 5C11.1071 5.03971 11.0923 5.06774 11.0772 5.08367C11.0632 5.09845 11.0547 5.09836 11.0528 5.09833L11.0526 5.09833H8.68421L8.68405 5.09833C8.68218 5.09836 8.67363 5.09845 8.65963 5.08367C8.64453 5.06774 8.62974 5.03971 8.62974 5ZM5.47184 8.43167V8.235H5.58079V8.43167H5.47184ZM8.62974 8.33333C8.62974 8.29362 8.64453 8.26559 8.65963 8.24966C8.67408 8.2344 8.68273 8.235 8.68421 8.235H11.0526C11.0541 8.235 11.0628 8.2344 11.0772 8.24966C11.0923 8.26559 11.1071 8.29362 11.1071 8.33333C11.1071 8.37305 11.0923 8.40107 11.0772 8.41701C11.0628 8.43227 11.0541 8.43167 11.0526 8.43167H8.68421L8.68405 8.43167C8.68218 8.43169 8.67363 8.43178 8.65963 8.41701C8.64453 8.40107 8.62974 8.37305 8.62974 8.33333Z" fill="#292929" stroke="#292929" stroke-width="1.47"/>
</svg>
