<svg width="10" height="10" viewBox="0 0 10 10" fill="none" xmlns="http://www.w3.org/2000/svg">
<path d="M4.99999 0.649994C3.83749 0.649994 2.74249 1.09999 1.92499 1.92499C0.649991 3.19249 0.29005 5.08246 1.01005 6.73246C1.04755 6.81496 1.12996 6.86752 1.21996 6.86752C1.24996 6.86752 1.28005 6.85994 1.31005 6.85244C1.42255 6.79994 1.47502 6.67255 1.43002 6.56005C0.77752 5.07505 1.09993 3.37994 2.23993 2.23994C2.98243 1.50494 3.95749 1.09999 4.99999 1.09999C5.87749 1.09999 6.71002 1.38502 7.39252 1.91752L6.99496 1.96249C6.87496 1.97749 6.78499 2.09005 6.79999 2.21005C6.81499 2.32255 6.91249 2.40502 7.02499 2.40502H7.05502L7.95502 2.29999C8.07502 2.28499 8.15749 2.18005 8.14999 2.06005L8.09755 1.21249C8.09005 1.08499 7.98496 0.994935 7.85746 1.00244C7.72996 1.00994 7.64005 1.11502 7.64755 1.24252L7.66249 1.54999C6.90499 0.972494 5.97499 0.649994 4.99999 0.649994ZM4.99999 2.43505C3.97999 2.43505 3.15499 3.26005 3.12499 4.31005C3.09499 5.36005 4.21996 6.84502 4.70746 7.43002C4.78246 7.51252 4.88752 7.56494 4.99252 7.56494C5.09752 7.56494 5.20993 7.51252 5.27743 7.43002C5.76493 6.84502 6.89755 5.36005 6.86005 4.31005C6.84505 3.26005 6.01999 2.43505 4.99999 2.43505ZM8.76947 3.1121C8.74018 3.11281 8.71059 3.11934 8.68246 3.13246C8.56996 3.18496 8.51746 3.31246 8.56996 3.43246C9.22246 4.91746 8.90755 6.62002 7.76005 7.76752C7.01755 8.49502 6.04249 8.89999 4.99999 8.89999C4.12249 8.89999 3.28996 8.61496 2.60746 8.08246L3.00502 8.03749C3.12502 8.02249 3.21499 7.90994 3.19999 7.78994C3.18499 7.66994 3.07243 7.57996 2.95243 7.59496L2.05243 7.69999C1.93243 7.71499 1.84996 7.81994 1.85746 7.93994L1.91005 8.78749C1.91755 8.90749 2.01505 8.99755 2.13505 8.99755H2.14999C2.27749 8.99005 2.36755 8.88496 2.36005 8.75747L2.34496 8.44999C3.09496 9.02749 4.02499 9.34999 4.99999 9.34999C6.16249 9.34999 7.25749 8.89999 8.07499 8.07499C9.35749 6.79249 9.70996 4.90246 8.98246 3.24496C8.94309 3.16059 8.85736 3.10999 8.76947 3.1121ZM4.99999 3.56005C5.41249 3.56005 5.74999 3.89755 5.74999 4.31005C5.74999 4.72255 5.41249 5.06005 4.99999 5.06005C4.58749 5.06005 4.24999 4.72255 4.24999 4.31005C4.24999 3.89755 4.58749 3.56005 4.99999 3.56005Z" fill="black"/>
</svg>
