<svg width="16" height="16" viewBox="0 0 16 16" fill="none" xmlns="http://www.w3.org/2000/svg">
<path d="M6.58125 0C2.95432 0 0 2.95432 0 6.58125C0 10.2082 2.95432 13.1625 6.58125 13.1625C8.15845 13.1625 9.6069 12.6024 10.7421 11.6727L14.6716 15.6022C14.8366 15.7741 15.0817 15.8434 15.3124 15.7833C15.543 15.7231 15.7231 15.543 15.7833 15.3124C15.8434 15.0817 15.7741 14.8366 15.6022 14.6716L11.6727 10.7421C12.6024 9.6069 13.1625 8.15845 13.1625 6.58125C13.1625 2.95432 10.2082 0 6.58125 0ZM6.58125 1.31625C9.49682 1.31625 11.8462 3.66568 11.8462 6.58125C11.8462 9.49682 9.49682 11.8462 6.58125 11.8462C3.66568 11.8462 1.31625 9.49682 1.31625 6.58125C1.31625 3.66568 3.66568 1.31625 6.58125 1.31625Z" fill="#989494"/>
</svg>
